# Material
mtllib Universal Block.mtl
s off
# Object
o Universal Block
# Vertices
v -0.500000 0.500000 0.500000
v 0.500000 0.500000 0.500000
v -0.500000 0.500000 -0.500000
v 0.500000 0.500000 -0.500000
v 0.500000 -0.500000 0.500000
v -0.500000 -0.500000 0.500000
v 0.500000 -0.500000 -0.500000
v -0.500000 -0.500000 -0.500000
# UV Coordinates
vt 1.000000 0.000000
vt 0.000000 0.000000
vt 1.000000 1.000000
vt 0.000000 1.000000
# Vertex Normals
vn 0.0000 1.0000 0.0000
vn 0.0000 -1.0000 0.0000
vn 1.0000 0.0000 0.0000
vn -1.0000 0.0000 0.0000
vn 0.0000 0.0000 1.0000
vn 0.0000 0.0000 -1.0000
# Faces
usemtl Material0
f 3/3/1 1/1/1 2/2/1 4/4/1
f 7/2/2 5/4/2 6/3/2 8/1/2
f 4/4/3 2/3/3 5/1/3 7/2/3
f 8/1/4 6/2/4 1/4/4 3/3/4
f 5/2/5 2/4/5 1/3/5 6/1/5
f 8/2/6 3/4/6 4/3/6 7/1/6
